<svg width="800" height="800" xmlns="http://www.w3.org/2000/svg">

 <g>
  <title>background</title>
  <rect fill="none" id="canvas_background" height="402" width="582" y="-1" x="-1"/>
 </g>
 <g>
  <title>Layer 1</title>
  <path stroke-width="0" fill="#5F6C79" id="svg_2" d="m768,490.7c-155.7,0 -332.8,-142.9 -332.8,-201.6c0,-3.2 0,-4.3 4.3,-7.5c4.3,-2.1 13.9,-6.4 32,-7.5c5.3,0 9.6,-1.1 14.9,-1.1c18.1,0 32,-13.9 32,-32c0,-18.1 -13.9,-32 -32,-32c-7.5,0 -13.9,0 -20.3,1.1c-115.2,8.5 -177.1,84.3 -231.5,151.5c-56.5,69.3 -104.5,129.1 -202.6,129.1c-18.1,0 -32,13.9 -32,32s13.9,32 32,32c129.1,0 194.1,-81.1 252.8,-152.5c28.8,-36.3 56.5,-69.3 88.5,-92.8c14.9,68.3 102.4,133.3 131.2,152.5c85.3,58.7 181.3,92.8 263.5,92.8c18.1,0 32,-13.9 32,-32s-800,-522.7 -32,-32z"/>
 </g>
</svg>
