<svg width="32" height="32" xmlns="http://www.w3.org/2000/svg">
 <title/>
 <desc/>

 <g>
  <title>background</title>
  <rect fill="none" id="canvas_background" height="402" width="582" y="-1" x="-1"/>
 </g>
 <g>
  <title>Layer 1</title>
  <path stroke-width="0" fill="#ffffff" id="wind" d="m30,14c0,-2.20914 -1.79536,-4 -4,-4c-2.20914,0 -4,1.78941 -4,4l2,0c0,-1.10457 0.88773,-2 2,-2c1.10457,0 2,0.88773 2,2c0,1.10457 -0.88976,2 -2.00359,2l-22.99641,0l0,2l23.00153,0c2.20829,0 3.99847,-1.79536 3.99847,-4l0,0zm-9,-4c0,-2.20914 -1.79536,-4 -4,-4c-2.20914,0 -4,1.78941 -4,3.9971l0,0.0029l2,0c0,-1.10457 0.88773,-2 2,-2c1.10457,0 2,0.88773 2,2c0,1.10457 -0.89706,2 -2.00586,2l-11.99414,0l0,2l12.0038,0c2.20704,0 3.9962,-1.79536 3.9962,-4l0,0zm5,13c0,1.65685 -1.34652,3 -3,3l0,0c-1.65685,0 -3,-1.34206 -3,-2.99139l0,-0.00861l2,0c0,0.55228 0.44386,1 1,1l0,0c0.55228,0 1,-0.44386 1,-1l0,0c0,-0.55228 -0.44892,-1 -1.00748,-1l-13.99252,0l0,-2l13.99987,0c1.65693,0 3.00013,1.34652 3.00013,3l0,0l0,0z"/>
 </g>
</svg>